<?xml version="1.0"?><svg version="1.2" baseProfile="tiny-ps" viewBox="0 0 192 192" xmlns="http://www.w3.org/2000/svg" xmlns:xlink="http://www.w3.org/1999/xlink"><title>WakandaRides</title><g><g fill="#fffffe" transform="matrix(.1 0 0 -.1 0 192)"><path d="M0 960V0h1920v1920H0V960z"/></g><g fill="#eae8f0" transform="matrix(.1 0 0 -.1 0 192)"><path d="M655 1711c-17-10-55-48-85-85-60-74-85-92-177-129-35-14-76-35-92-46l-29-21-16-34-16-35-10-102-10-102-55-97-55-96v-99l35-60c20-33 45-79 56-103l21-44 9-93 8-94 15-35 15-36 46-29c25-16 73-39 106-51l61-23 47-50c25-28 64-69 86-92l40-43 40-11 40-10 70 15c39 9 93 18 121 21l51 5 92-21 92-22 37 10 37 10 85 91 85 90 80 35c44 19 95 46 113 61l33 26 11 26c5 15 16 75 22 134l13 106 32 54c17 29 43 77 57 106l26 53-6 44-7 43-40 67c-23 37-47 81-54 98l-13 32-7 80c-8 97-21 142-49 174l-21 24-100 47-100 47-69 77c-38 42-81 83-97 91l-28 15h-48c-26 0-73-7-103-15s-77-15-105-15c-27 0-75 7-105 15s-77 15-105 15h-50l-30-19zm35-367c15-9 35-29 44-44l16-28V470h-40l-32 29-33 29-5 416-5 416h13c8 0 26-7 42-16zm320-366V595l-10-37-11-37-30-25-31-26H816l23 16 23 17 14 33 14 33v702l15 29 15 29 28 15c15 9 35 15 45 16h17V978zm250-14V568l-16-34-17-35-28-14-28-15h-95l30 31 29 30 5 374 5 374 21 28c21 28 58 53 82 53h12V964z"/></g><g fill="#c0bad8" transform="matrix(.1 0 0 -.1 0 192)"><path d="M680 1723c-28-11-57-39-115-107l-58-69-101-47-101-47-22-24c-31-34-43-71-49-158-7-98-18-133-63-206-21-33-43-75-50-93l-14-32 5-44 5-44 46-76c52-84 62-118 71-226l7-75 19-40 20-40 32-20c18-11 66-34 107-52 81-35 103-53 163-130 22-29 55-62 73-73l32-20h49c27 0 74 7 104 15l55 15h110l55-15c30-8 74-15 98-15h43l27 14c15 8 62 52 104 99l77 84 81 33 82 33 33 31 33 31 11 40c6 22 11 59 11 81 0 23 4 65 10 94l10 52 44 74c25 40 50 90 55 112l11 38-10 34c-5 19-30 69-55 112l-45 77-10 43c-5 24-10 66-10 93 0 28-5 68-11 90l-11 40-34 31-33 32-71 28c-89 35-113 52-184 137l-57 67-29 15-29 15h-40c-22 0-78-9-125-20l-85-20-73 16c-83 18-176 26-198 17zm10-378 30-15 15-30 15-29V470h-15c-26 0-64 23-82 49l-18 26-3 408-3 407h16c9 0 29-7 45-15zm318-396-3-411-37-34-38-34H818l30 29 29 30 7 32c3 17 6 184 6 371v339l15 29c18 36 52 60 83 60h23l-3-411zm252 11V559l-14-28c-8-15-26-35-40-45l-25-16h-115l22 16c12 8 29 28 37 44l15 29v703l16 34 17 35 26 14c14 8 34 14 44 15h17V960z"/></g><g fill="#887dbc" transform="matrix(.1 0 0 -.1 0 192)"><path d="m675 1716-30-13-78-86-77-85-78-32c-42-18-92-43-110-57l-33-25-11-26c-5-15-16-75-22-133l-13-107-28-48c-16-27-41-73-57-103l-28-54v-64l30-57c17-31 43-80 59-110l29-54 7-84c3-46 11-99 16-120l9-36 34-30 34-29 73-29 74-28 90-92c50-50 100-97 112-103 32-16 73-14 175 11l91 21 96-21c115-26 142-27 187-6l35 17 60 74 61 73 116 58 116 57 18 36 19 36 8 102 9 102 53 92 53 91 4 50 4 51-25 45c-13 25-39 71-56 103l-33 58-8 99-9 100-12 22c-6 13-21 34-33 47l-21 23-101 48-100 47-58 70-58 70-38 22-38 21h-26c-15 0-70-10-122-22l-95-22-97 22c-111 25-135 26-177 8zm25-375c14-10 33-33 42-52l18-34V471l-10-6-9-6-35 15-36 15-20 33-20 33v816l23-6c12-4 33-14 47-24zm310-378V555l-20-33-20-33-35-15-34-14H797l39 34 39 34 5 375 5 376 21 28c18 25 76 63 97 63h7V963zm232-443c-10-14-34-33-53-42l-34-18h-110l30 20 30 20 18 32 17 33v712l23 34 23 34 34 11 35 12 3-412 2-411-18-25z"/></g><g fill="#5b4aa6" transform="matrix(.1 0 0 -.1 0 192)"><path d="m674 1711-42-19-52-66-53-65-36-24c-20-12-66-36-104-51l-68-28-28-27-29-27-11-40c-6-21-11-61-11-89 0-27-5-69-10-93l-10-43-45-77c-25-43-50-93-55-112l-10-34 11-38c5-22 31-73 56-114l46-76 9-76c5-43 12-95 14-117l5-41 19-32 20-32 112-54 113-54 61-75 62-74 35-16c45-22 65-21 157 3 96 25 124 25 238-1l93-22 39 12 39 11 81 90 82 89 89 37 90 37 29 33 29 34 6 32c3 18 10 73 15 121l9 88 53 92 53 91v102l-53 91-53 91-13 114-13 113-11 22c-18 33-67 65-155 103l-78 33-80 88-81 89-38 10-37 10-49-10c-27-5-67-14-89-20-60-14-105-12-197 10-101 24-103 24-154 1zm46-387 35-34 3-416 3-417-33 7-33 6-32 35-33 35v832l28-7 27-6 35-35zm290-368V543l-21-27c-11-14-34-33-49-41l-29-15-68 1-68 1 33 14 32 14 20 33 20 32v710l18 34 19 34 34 19c18 10 39 18 46 18h13V956zm258 2-3-413-18-27-18-26-34-16-33-16h-127l31 19c18 11 39 30 48 42l16 23v691l10 34c16 55 65 99 113 100l18 1-3-412z"/></g><g fill="#452fac" transform="matrix(.1 0 0 -.1 0 192)"><path d="M654 1698c-17-13-57-53-88-91l-58-67-38-20c-22-11-63-29-92-41-59-23-93-50-114-92l-15-28-9-99-8-99-33-58c-17-32-43-78-56-103l-25-45 4-51 4-50 52-90 52-90 10-100c11-118 18-140 57-176l29-28 64-26c95-38 123-58 180-127 28-34 66-72 83-84l31-23h51c27 0 75 7 105 15 70 19 140 19 210 0 30-8 77-15 103-15h48l27 14c15 8 58 49 96 91l70 78 103 48 103 48 20 33c21 35 23 43 38 176l10 82 53 93 53 92v100l-53 93-54 93-9 87c-5 48-14 105-20 126l-10 40-29 27-28 27-78 31c-90 37-112 53-182 138l-52 63-29 15-29 15h-43c-24 0-68-7-98-15l-55-15H895l-55 15c-30 8-78 15-106 15h-50l-30-22zm37-343 30-16 19-32 20-32V460h-20c-12 0-34 7-50 15l-30 15-17 33-18 32-3 394c-2 217-1 400 2 408 7 17 30 17 67-2zm327-392-3-408-19-31c-10-17-31-39-46-48l-28-16H765l42 21 41 20 16 34 16 33v703l15 30 16 30 32 19c18 11 42 20 55 20h23l-3-407zm252 0V555l-20-32-19-32-30-16-30-15-73 1-73 1 30 13c17 7 39 23 50 35l20 22 5 377 5 376 17 24c23 32 68 61 96 61h22V963z"/></g></g></svg>